<?xml version="1.0" encoding="utf-8"?>
<!-- Generator: Adobe Illustrator 28.0.0, SVG Export Plug-In . SVG Version: 6.00 Build 0)  -->
<svg version="1.1" id="Capa_1" xmlns="http://www.w3.org/2000/svg" xmlns:xlink="http://www.w3.org/1999/xlink" x="0px" y="0px"
	 viewBox="0 0 255 167" style="enable-background:new 0 0 255 167;" xml:space="preserve">
<style type="text/css">
	.st0{fill:#1D1D1B;}
	.st1{fill:#141E68;}
	.st2{fill:#CE0E2D;}
	.st3{fill-rule:evenodd;clip-rule:evenodd;fill:#1D1D1B;}
	.st4{fill:#DE453B;}
	.st5{fill:#001E62;}
	.st6{fill:#FFFFFF;}
	.st7{fill:none;stroke:#E30613;stroke-width:10;stroke-miterlimit:10;}
	.st8{fill:#E30613;}
	.st9{fill:#CE1322;}
	.st10{fill-rule:evenodd;clip-rule:evenodd;fill:#0D00AA;}
	.st11{fill:#1F140F;}
</style>
<g id="Ilustración_8_00000160896204868688930200000013681663627989279402_">
	<g>
		<path class="st0" d="M76.7,96.9c-6.8,0-13.5,0-20.3,0c-1.1,0-1.6-0.4-2-1.4c-0.5-1.5-0.5-3.1-0.1-4.7c0.3-1,0.7-1.2,1.7-1.2
			c9.2,0,18.4,0,27.6,0c0.5,0,1.1-0.1,1.6-0.2c0.7-0.2,1-0.8,0.6-1.4c-0.2-0.3-0.5-0.7-0.8-0.9c-2.6-1.7-5.2-3.3-7.8-5
			c-1.9-1.2-3.7-2.5-5.1-4.2c-0.3-0.4-0.6-0.8-0.8-1.3c-0.9-1.6-0.6-3.2,0.8-4.3c1.4-1.2,3.1-1.8,4.9-2.3c2-0.5,4.1-0.6,6.2-0.6
			c12.8,0,25.6,0,38.5,0c1.1,0,1.6,0.3,1.7,1.4c0.1,0.6,0.1,1.2,0,1.8c-0.1,0.9-0.6,1.3-1.5,1.3c-9.5,0-19.1,0-28.6,0
			c-0.6,0-1.2,0.1-1.7,0.3c-0.7,0.3-0.9,1-0.5,1.6c0.3,0.4,0.7,0.7,1.1,0.9c3.9,2.5,7.8,4.9,11.7,7.3c1.4,0.9,2.7,2,3.6,3.3
			c1.8,2.5,1.4,4.9-1.2,6.7c-1.9,1.3-4,2-6.2,2.3c-1.9,0.3-3.9,0.4-5.9,0.4C88.4,97,82.6,96.9,76.7,96.9z"/>
		<path class="st0" d="M135.7,97.5c-1.5,0-3.1-0.3-4.5-0.9c-2.9-1.2-4.5-3.5-4.9-6.6c-0.1-0.9-0.2-1.9-0.2-2.8c0-3.4,0-6.8,0-10.1
			c0-1,0.1-1.1,1.1-1.1c3.7,0,7.4,0,11.1,0c0.9,0,1.1,0.1,1.1,1c0,3.4,0,6.9,0,10.3c0,1.2,0.2,2.4,0.5,3.6c0.4,1.6,1.6,2.7,3.2,2.8
			c2.7,0.2,5.4,0.2,8.1,0c1.9-0.1,3.1-1.6,3.5-3.4c0.2-1,0.4-2,0.4-3c0-3.4,0-6.9,0-10.3c0-0.9,0.2-1.1,1.1-1.1c1.1,0,2.3,0,3.4,0
			c0.7,0,0.9,0.2,0.9,0.9c0,3.8,0.1,7.5,0,11.3c-0.1,2.6-0.9,5.1-2.9,6.9c-1.5,1.3-3.4,2.2-5.4,2.3
			C149.2,97.6,138.3,97.6,135.7,97.5z"/>
		<path class="st0" d="M187.1,83.8c1.2,1.1,2.4,2.1,3.5,3.2c3.2,2.9,6.5,5.8,9.7,8.7c0.2,0.2,0.4,0.3,0.5,0.5
			c0.3,0.4,0.2,0.7-0.2,0.8c-0.2,0.1-0.5,0.1-0.7,0.1c-4.2,0-8.3,0-12.5,0c-0.8,0-1.6-0.3-2.2-0.8c-2.6-2.3-5.1-4.6-7.7-6.9
			c-0.4-0.4-0.7-0.4-1.2-0.1c-3.2,2.3-6.4,4.6-9.6,7c-0.8,0.6-1.6,0.8-2.6,0.8c-0.6,0-1.1,0-1.6,0c0,0-0.1,0-0.1,0
			c-0.5-0.1-0.7-0.8-0.3-1.1c0,0,0,0,0,0c1.4-1,2.7-2,4.1-3c2.6-1.9,5.2-3.8,7.9-5.7c0.1-0.1,0.3-0.2,0.5-0.4
			c-0.4-0.4-0.8-0.8-1.2-1.1c-3.2-2.8-6.4-5.7-9.5-8.5c-0.1-0.1-0.2-0.2-0.3-0.3c-0.3-0.4-0.2-0.9,0.4-1c0.2,0,0.4,0,0.6,0
			c4.1,0,8.2,0,12.2,0c1,0,1.8,0.3,2.5,0.9c1.7,1.6,3.4,3.1,5.1,4.6c0.3,0.3,0.5,0.3,0.9,0c2.2-1.6,4.5-3.2,6.7-4.8
			c0.7-0.5,1.6-0.8,2.4-0.8c0.6,0,1.2,0,1.8,0c0,0,0.1,0,0.1,0c0.5,0.1,0.6,0.7,0.3,1c0,0,0,0,0,0c-1.7,1.3-3.4,2.5-5.1,3.8
			C190,81.7,188.5,82.7,187.1,83.8z"/>
		<path class="st0" d="M110.9,86.4c0-3.1,0-6.3,0-9.4c0-1,0.2-1.1,1.1-1.1c3.4,0,6.7,0,10.1,0c1,0,1.1,0.2,1.1,1.1
			c0,6.3,0,12.7,0,19c0,0.9-0.2,1.1-1.1,1.1c-3.3,0-6.7,0-10,0c-0.9,0-1.1-0.2-1.1-1.1C110.9,92.7,110.9,89.5,110.9,86.4z"/>
	</g>
</g>
<g id="Capa_2">
</g>
</svg>
