<?xml version="1.0" encoding="utf-8"?>
<!-- Generator: Adobe Illustrator 28.0.0, SVG Export Plug-In . SVG Version: 6.00 Build 0)  -->
<svg version="1.1" id="Capa_1" xmlns="http://www.w3.org/2000/svg" xmlns:xlink="http://www.w3.org/1999/xlink" x="0px" y="0px"
	 viewBox="0 0 255 167" style="enable-background:new 0 0 255 167;" xml:space="preserve">
<style type="text/css">
	.st0{fill:#1D1D1B;}
	.st1{fill:#141E68;}
	.st2{fill:#CE0E2D;}
	.st3{fill-rule:evenodd;clip-rule:evenodd;fill:#1D1D1B;}
	.st4{fill:#DE453B;}
	.st5{fill:#001E62;}
	.st6{fill:#FFFFFF;}
	.st7{fill:none;stroke:#E30613;stroke-width:10;stroke-miterlimit:10;}
	.st8{fill:#E30613;}
	.st9{fill:#CE1322;}
	.st10{fill-rule:evenodd;clip-rule:evenodd;fill:#0D00AA;}
	.st11{fill:#1F140F;}
</style>
<g id="Ilustración_5_00000021103382296319229700000009843849731179630730_">
	<g>
		<path class="st0" d="M214.8,92c-3.3,0-6.5,0-9.8,0c-2.1,0-4.3,0-6.4,0c-1.1,0-2.2-0.2-3.3-0.4c-0.2,0-0.3-0.1-0.5-0.1
			c-1.8-0.6-1.9-1.8-1-3c1.8-2.5,3.6-5,5.4-7.5c0.8-1.1,1.9-1.6,3.2-1.8c0.9-0.1,1.8-0.2,2.7-0.2c5.3,0,10.5,0,15.8,0
			c0.9,0,1.7,0.1,2.2,0.9c0,0.3,0,0.5,0,0.8c-0.8,1.7-2.1,3.1-3.1,4.6c-0.8,1.1-2,1.6-3.4,1.8c-0.4,0-0.8,0-1.2,0c-4.5,0-9,0-13.5,0
			c-0.3,0-0.6,0.1-0.7,0.4c-0.3,0.4-0.5,0.8-0.9,1.2c0.4,0.1,0.6,0.2,0.9,0.2c1.5,0,2.9,0.1,4.4,0.1c3.6,0,7.2,0,10.8,0
			c0.1,0,0.3,0,0.4,0c0.5,0,0.6,0.2,0.3,0.6c-0.5,0.7-1.7,2.4-1.7,2.4L214.8,92z M203.8,83.9c0.2,0,0.4,0,0.6,0c3,0,6.1,0,9.1,0
			c1.3,0,1.3,0,2-1c0.1-0.2,0.2-0.4,0.2-0.6c-0.1-0.1-0.4-0.2-0.6-0.2c-2.9,0-5.7,0-8.6,0C205.2,82.1,204.3,82.7,203.8,83.9z"/>
		<path class="st0" d="M38,101.2c0.4-1.3,0.8-2.6,1.1-3.9c0.6-2.4,1-4.8,0.8-7.2c-0.2-4.2-2.3-7-6.3-8.4c-0.3-0.1-0.6-0.2-0.9-0.3
			c-0.3-0.1-0.9-0.3-0.9-0.3l0.8-0.6c2.5,0.4,5.8,0.4,8.1-0.8c1.9-1,3.3-2.5,4.5-4.2c1.6-2.4,2.7-5,3.7-7.7c0.1-0.3,0.2-0.6,0.3-0.9
			c0.3-0.8,0.3-0.8,1.3-1c-0.2,0.8-0.5,1.6-0.7,2.4c-0.8,2.6-1.3,5.3-1.3,8.1c0,1.3,0.2,2.6,0.7,3.9c1,2.6,2.9,4.2,5.4,5.1
			c0.8,0.3,1.7,0.6,2.6,0.8c-0.5,0.4-0.9,0.7-0.9,0.7c-1.9-0.4-4.7-0.4-6.6,0.1c-2.4,0.7-4.2,2.2-5.8,4.1c-1.7,2.2-2.8,4.7-3.9,7.2
			c-0.3,0.7-0.5,1.3-0.8,2c-0.2,0.5-0.3,0.7-0.3,0.7S38.1,101.2,38,101.2z"/>
		<path class="st0" d="M135.6,82.3c-0.3-0.1-0.6-0.2-0.8-0.3c-0.2,0-0.5,0-0.7,0c-4.7,0-9.4,0-14.1,0c-0.1,0-0.3,0-0.4,0
			c-0.3,0-0.5-0.3-0.3-0.6c0.5-0.8,1.1-1.6,1.7-2.4c0.1-0.1,0.3-0.2,0.5-0.2c5.3,0,10.6,0,15.9,0.1c1.1,0,2.3,0.3,3.4,0.6
			c0.6,0.1,1.2,0.5,1.6,1c0.5,0.6,0.5,1.1,0,1.7c-1.7,2.4-3.5,4.8-5.2,7.2c-0.8,1.2-2.1,1.7-3.4,2c-1.3,0.3-2.7,0.5-4.1,0.5
			c-3.6,0.1-7.2,0.1-10.8,0c-1.1,0-2.2-0.2-3.3-0.4c-0.4-0.1-0.7-0.2-1-0.4c-1-0.5-1.2-1.5-0.6-2.4c0.9-1.3,1.8-2.5,2.7-3.7
			c0.6-0.8,1.5-1.1,2.4-1.2c0.3,0,0.6,0,1,0c4.6,0,9.3,0,13.9,0c0.3,0,0.6-0.1,0.7-0.4C135,83.1,135.3,82.8,135.6,82.3z M120.5,88.7
			c0.5,0.1,0.9,0.2,1.3,0.2c2.5,0,4.9,0,7.4,0.1c1.5,0,2.3-0.8,3-1.9c-0.1,0-0.1,0-0.1,0c-3.4,0-6.7,0-10.1,0c-0.1,0-0.3,0-0.3,0.1
			C121.3,87.6,121,88.1,120.5,88.7z"/>
		<path class="st0" d="M82.1,87c-0.3,0-0.4,0-0.6,0c-4.1,0-8.1,0-12.2,0c-0.5,0-0.9-0.1-1.4-0.2c-0.7-0.2-1-0.8-0.8-1.4
			c0.2-0.5,0.4-1,0.7-1.4c0.7-1,1.4-2,2.1-3c0.8-1.1,1.9-1.5,3.1-1.7c0.9-0.2,1.8-0.3,2.7-0.3c5.8,0,11.7,0,17.5,0
			c0.1,0,0.3,0,0.4,0c0.3,0.1,0.4,0.3,0.2,0.5c-0.6,0.8-1.1,1.6-1.7,2.4C92.1,82,91.8,82,91.6,82c-4.5,0-9,0-13.5,0
			c-0.2,0-0.4,0-0.7,0c-1.3,0-2.4,0.5-3,1.8c0.2,0,0.3,0,0.5,0c3.9,0,7.7,0,11.6,0c0.5,0,1.1,0.1,1.6,0.2c0.9,0.3,1.3,1,1,1.9
			c-0.1,0.3-0.3,0.7-0.5,1c-0.6,0.9-1.3,1.8-2,2.7c-0.8,1.1-2,1.7-3.3,1.9c-1.2,0.2-2.4,0.4-3.5,0.4c-5.6,0-11.2,0-16.8,0
			c-0.2,0-0.4-0.1-0.5-0.2c-0.1-0.1,0.1-0.4,0.2-0.5c0.6-0.7,1.2-1.3,1.7-2c0.2-0.3,0.5-0.4,0.8-0.4c4.6,0,9.1,0,13.7,0.1
			c1.2,0,2.1-0.3,2.8-1.2C81.7,87.5,81.9,87.3,82.1,87z"/>
		<path class="st0" d="M103.5,78.9c0.3,0,0.5,0,0.6,0c4.5,0,9,0,13.5,0c0.1,0,0.3,0,0.4,0c0.4,0,0.5,0.3,0.3,0.6
			c-0.5,0.8-1,1.5-1.5,2.2c-0.1,0.2-0.4,0.2-0.6,0.2c-1.6,0-3.2,0-4.7,0c-3.2,0-6.4,0-9.6,0c-0.3,0-0.5,0.1-0.7,0.3
			c-0.8,1.1-1.7,2.2-2.5,3.3c-0.7,1-1.4,1.9-2.1,2.9c0.3,0.4,0.7,0.4,1.2,0.4c1.9,0,3.8,0,5.7,0c0.1,0,0.3,0,0.4,0
			c0.3,0.1,0.4,0.3,0.2,0.5c-0.5,0.8-1.1,1.6-1.7,2.3c-0.1,0.1-0.3,0.2-0.4,0.2c-2.8,0-5.5,0-8.3-0.1c-0.7,0-1.4-0.2-2-0.4
			c-0.5-0.2-0.9-0.5-1.3-0.8c-0.7-0.6-0.7-1.4-0.2-2.1c3.4-4.7,6.7-9.3,10.1-14c0.2-0.3,0.5-0.5,0.9-0.5c1.6,0,3.2,0,4.8,0
			c0.2,0,0.5,0.1,0.5,0.2c0.1,0.2,0,0.4-0.1,0.6c-0.8,1.2-1.7,2.4-2.5,3.6C103.7,78.6,103.7,78.7,103.5,78.9z"/>
		<path class="st0" d="M171.3,86.9c0.2-0.1,0.4-0.2,0.5-0.3c3.7-2.4,7.4-4.9,11.2-7.3c0.3-0.2,0.6-0.3,0.9-0.3c1.6,0,4.7,0,4.7,0
			l0.4,0c0.3,0,0.4,0.4,0.2,0.6l-0.5,0.4c0,0-11.5,7.8-17.3,11.7c-0.3,0.2-0.6,0.3-0.9,0.3c-1.8,0-3.5,0-5.3,0
			c-0.6,0-0.7-0.1-0.6-0.7c0.5-3.9,1-7.9,1.5-11.8c0-0.3,0.2-0.5,0.5-0.5c1.8,0,3.7,0,5.5,0c0.3,0,0.5,0.3,0.5,0.6
			c-0.4,2.4-0.9,4.7-1.3,7.1C171.3,86.7,171.3,86.7,171.3,86.9z"/>
		<path class="st0" d="M157,78.9c2.3,0,4.6,0,6.9,0c0.7,0,0.8,0.1,0.7,0.8c-0.1,0.6-0.2,1.2-0.3,1.8c0,0.4-0.2,0.5-0.6,0.5
			c-1.3,0-2.5,0-3.8,0c-2.3,0-4.5,0-6.8,0c-0.4,0-0.9,0-1.3,0.1c-0.7,0.1-1.2,0.4-1.6,1c-2,2.8-4,5.6-6,8.3
			c-0.2,0.3-0.5,0.5-0.9,0.5c-1.7,0-3.3,0-5,0c-0.2,0-0.5-0.1-0.6-0.2c-0.1-0.1,0.1-0.4,0.2-0.6c2.4-3.3,4.8-6.6,7.1-9.9
			c0.9-1.2,2.2-1.8,3.6-2.1c1-0.2,2.1-0.2,3.2-0.3C153.5,78.9,155.2,78.9,157,78.9z"/>
		<path class="st0" d="M186.1,91.9c-0.8,0-1.7,0-2.5,0c-0.2,0-0.4-0.1-0.5-0.2c-0.1-0.1,0-0.4,0.1-0.5c2.9-4,5.7-8,8.6-11.9
			c0.1-0.2,0.4-0.3,0.6-0.3c1.7,0,3.5,0,5.2,0c0.2,0,0.4,0.1,0.4,0.2c0,0.1,0,0.4-0.1,0.5c-2.9,4-5.8,8-8.7,12
			c-0.2,0.2-0.4,0.3-0.7,0.3C187.8,91.9,187,91.9,186.1,91.9z"/>
		<path class="st0" d="M194.1,77.1c-0.3,0-0.5-0.3-0.3-0.6c0.5-0.7,1.2-1.7,1.6-2.2c0.1-0.2,0.3-0.3,0.6-0.3c1.3,0,4.2,0,5.4,0
			c0.2,0,0.3,0.3,0.2,0.4c-0.5,0.7-1.5,1.9-1.9,2.3c-0.1,0.2-0.4,0.3-0.6,0.3C198.4,77.1,195.5,77.1,194.1,77.1z"/>
	</g>
</g>
<g id="Capa_2">
</g>
</svg>
